<?xml version="1.0" standalone="no"?>
<!DOCTYPE svg PUBLIC "-//W3C//DTD SVG 20010904//EN"
 "http://www.w3.org/TR/2001/REC-SVG-20010904/DTD/svg10.dtd">
<svg version="1.0" xmlns="http://www.w3.org/2000/svg"
 width="512.000000pt" height="512.000000pt" viewBox="0 0 512.000000 512.000000"
 preserveAspectRatio="xMidYMid meet">
<metadata>
Created by potrace 1.11, written by Peter Selinger 2001-2013
</metadata>
<g transform="translate(0.000000,512.000000) scale(0.100000,-0.100000)"
fill="#000000" stroke="none">
<path d="M440 2665 l0 -2225 2225 0 2225 0 0 25 0 25 -2215 0 -2215 0 0 2185
c0 1936 2 2185 15 2185 8 0 15 7 15 15 0 9 -9 15 -25 15 l-25 0 0 -2225z"/>
<path d="M3760 2560 l0 -1890 460 0 460 0 0 1890 0 1890 -460 0 -460 0 0
-1890z"/>
<path d="M640 1280 l0 -610 460 0 460 0 0 610 0 610 -460 0 -460 0 0 -610z"/>
</g>
</svg>
